<?xml version="1.0"?>
<svg xmlns="http://www.w3.org/2000/svg" width="232" height="232">
  <desc>https://go.verborgh.org/rdf-solid-2022</desc>
  <path style="fill:rgb(0, 0, 0)" d="M 0,0 l 8,0 0,8 -8,0 z M 8,0 l 8,0 0,8 -8,0 z M 16,0 l 8,0 0,8 -8,0 z M 24,0 l 8,0 0,8 -8,0 z M 32,0 l 8,0 0,8 -8,0 z M 40,0 l 8,0 0,8 -8,0 z M 48,0 l 8,0 0,8 -8,0 z M 80,0 l 8,0 0,8 -8,0 z M 96,0 l 8,0 0,8 -8,0 z M 112,0 l 8,0 0,8 -8,0 z M 144,0 l 8,0 0,8 -8,0 z M 152,0 l 8,0 0,8 -8,0 z M 160,0 l 8,0 0,8 -8,0 z M 176,0 l 8,0 0,8 -8,0 z M 184,0 l 8,0 0,8 -8,0 z M 192,0 l 8,0 0,8 -8,0 z M 200,0 l 8,0 0,8 -8,0 z M 208,0 l 8,0 0,8 -8,0 z M 216,0 l 8,0 0,8 -8,0 z M 224,0 l 8,0 0,8 -8,0 z M 0,8 l 8,0 0,8 -8,0 z M 48,8 l 8,0 0,8 -8,0 z M 64,8 l 8,0 0,8 -8,0 z M 80,8 l 8,0 0,8 -8,0 z M 104,8 l 8,0 0,8 -8,0 z M 120,8 l 8,0 0,8 -8,0 z M 136,8 l 8,0 0,8 -8,0 z M 176,8 l 8,0 0,8 -8,0 z M 224,8 l 8,0 0,8 -8,0 z M 0,16 l 8,0 0,8 -8,0 z M 16,16 l 8,0 0,8 -8,0 z M 24,16 l 8,0 0,8 -8,0 z M 32,16 l 8,0 0,8 -8,0 z M 48,16 l 8,0 0,8 -8,0 z M 96,16 l 8,0 0,8 -8,0 z M 120,16 l 8,0 0,8 -8,0 z M 152,16 l 8,0 0,8 -8,0 z M 176,16 l 8,0 0,8 -8,0 z M 192,16 l 8,0 0,8 -8,0 z M 200,16 l 8,0 0,8 -8,0 z M 208,16 l 8,0 0,8 -8,0 z M 224,16 l 8,0 0,8 -8,0 z M 0,24 l 8,0 0,8 -8,0 z M 16,24 l 8,0 0,8 -8,0 z M 24,24 l 8,0 0,8 -8,0 z M 32,24 l 8,0 0,8 -8,0 z M 48,24 l 8,0 0,8 -8,0 z M 64,24 l 8,0 0,8 -8,0 z M 72,24 l 8,0 0,8 -8,0 z M 80,24 l 8,0 0,8 -8,0 z M 96,24 l 8,0 0,8 -8,0 z M 104,24 l 8,0 0,8 -8,0 z M 120,24 l 8,0 0,8 -8,0 z M 128,24 l 8,0 0,8 -8,0 z M 136,24 l 8,0 0,8 -8,0 z M 144,24 l 8,0 0,8 -8,0 z M 160,24 l 8,0 0,8 -8,0 z M 176,24 l 8,0 0,8 -8,0 z M 192,24 l 8,0 0,8 -8,0 z M 200,24 l 8,0 0,8 -8,0 z M 208,24 l 8,0 0,8 -8,0 z M 224,24 l 8,0 0,8 -8,0 z M 0,32 l 8,0 0,8 -8,0 z M 16,32 l 8,0 0,8 -8,0 z M 24,32 l 8,0 0,8 -8,0 z M 32,32 l 8,0 0,8 -8,0 z M 48,32 l 8,0 0,8 -8,0 z M 72,32 l 8,0 0,8 -8,0 z M 112,32 l 8,0 0,8 -8,0 z M 136,32 l 8,0 0,8 -8,0 z M 144,32 l 8,0 0,8 -8,0 z M 152,32 l 8,0 0,8 -8,0 z M 160,32 l 8,0 0,8 -8,0 z M 176,32 l 8,0 0,8 -8,0 z M 192,32 l 8,0 0,8 -8,0 z M 200,32 l 8,0 0,8 -8,0 z M 208,32 l 8,0 0,8 -8,0 z M 224,32 l 8,0 0,8 -8,0 z M 0,40 l 8,0 0,8 -8,0 z M 48,40 l 8,0 0,8 -8,0 z M 64,40 l 8,0 0,8 -8,0 z M 72,40 l 8,0 0,8 -8,0 z M 88,40 l 8,0 0,8 -8,0 z M 96,40 l 8,0 0,8 -8,0 z M 104,40 l 8,0 0,8 -8,0 z M 120,40 l 8,0 0,8 -8,0 z M 136,40 l 8,0 0,8 -8,0 z M 160,40 l 8,0 0,8 -8,0 z M 176,40 l 8,0 0,8 -8,0 z M 224,40 l 8,0 0,8 -8,0 z M 0,48 l 8,0 0,8 -8,0 z M 8,48 l 8,0 0,8 -8,0 z M 16,48 l 8,0 0,8 -8,0 z M 24,48 l 8,0 0,8 -8,0 z M 32,48 l 8,0 0,8 -8,0 z M 40,48 l 8,0 0,8 -8,0 z M 48,48 l 8,0 0,8 -8,0 z M 64,48 l 8,0 0,8 -8,0 z M 80,48 l 8,0 0,8 -8,0 z M 96,48 l 8,0 0,8 -8,0 z M 112,48 l 8,0 0,8 -8,0 z M 128,48 l 8,0 0,8 -8,0 z M 144,48 l 8,0 0,8 -8,0 z M 160,48 l 8,0 0,8 -8,0 z M 176,48 l 8,0 0,8 -8,0 z M 184,48 l 8,0 0,8 -8,0 z M 192,48 l 8,0 0,8 -8,0 z M 200,48 l 8,0 0,8 -8,0 z M 208,48 l 8,0 0,8 -8,0 z M 216,48 l 8,0 0,8 -8,0 z M 224,48 l 8,0 0,8 -8,0 z M 72,56 l 8,0 0,8 -8,0 z M 80,56 l 8,0 0,8 -8,0 z M 88,56 l 8,0 0,8 -8,0 z M 152,56 l 8,0 0,8 -8,0 z M 160,56 l 8,0 0,8 -8,0 z M 0,64 l 8,0 0,8 -8,0 z M 8,64 l 8,0 0,8 -8,0 z M 16,64 l 8,0 0,8 -8,0 z M 24,64 l 8,0 0,8 -8,0 z M 32,64 l 8,0 0,8 -8,0 z M 48,64 l 8,0 0,8 -8,0 z M 56,64 l 8,0 0,8 -8,0 z M 64,64 l 8,0 0,8 -8,0 z M 72,64 l 8,0 0,8 -8,0 z M 88,64 l 8,0 0,8 -8,0 z M 120,64 l 8,0 0,8 -8,0 z M 128,64 l 8,0 0,8 -8,0 z M 136,64 l 8,0 0,8 -8,0 z M 152,64 l 8,0 0,8 -8,0 z M 168,64 l 8,0 0,8 -8,0 z M 184,64 l 8,0 0,8 -8,0 z M 200,64 l 8,0 0,8 -8,0 z M 216,64 l 8,0 0,8 -8,0 z M 16,72 l 8,0 0,8 -8,0 z M 24,72 l 8,0 0,8 -8,0 z M 32,72 l 8,0 0,8 -8,0 z M 56,72 l 8,0 0,8 -8,0 z M 64,72 l 8,0 0,8 -8,0 z M 80,72 l 8,0 0,8 -8,0 z M 96,72 l 8,0 0,8 -8,0 z M 104,72 l 8,0 0,8 -8,0 z M 152,72 l 8,0 0,8 -8,0 z M 160,72 l 8,0 0,8 -8,0 z M 168,72 l 8,0 0,8 -8,0 z M 176,72 l 8,0 0,8 -8,0 z M 184,72 l 8,0 0,8 -8,0 z M 192,72 l 8,0 0,8 -8,0 z M 224,72 l 8,0 0,8 -8,0 z M 0,80 l 8,0 0,8 -8,0 z M 8,80 l 8,0 0,8 -8,0 z M 48,80 l 8,0 0,8 -8,0 z M 64,80 l 8,0 0,8 -8,0 z M 80,80 l 8,0 0,8 -8,0 z M 104,80 l 8,0 0,8 -8,0 z M 112,80 l 8,0 0,8 -8,0 z M 120,80 l 8,0 0,8 -8,0 z M 128,80 l 8,0 0,8 -8,0 z M 136,80 l 8,0 0,8 -8,0 z M 144,80 l 8,0 0,8 -8,0 z M 0,88 l 8,0 0,8 -8,0 z M 8,88 l 8,0 0,8 -8,0 z M 24,88 l 8,0 0,8 -8,0 z M 56,88 l 8,0 0,8 -8,0 z M 64,88 l 8,0 0,8 -8,0 z M 96,88 l 8,0 0,8 -8,0 z M 104,88 l 8,0 0,8 -8,0 z M 120,88 l 8,0 0,8 -8,0 z M 128,88 l 8,0 0,8 -8,0 z M 144,88 l 8,0 0,8 -8,0 z M 152,88 l 8,0 0,8 -8,0 z M 160,88 l 8,0 0,8 -8,0 z M 184,88 l 8,0 0,8 -8,0 z M 192,88 l 8,0 0,8 -8,0 z M 200,88 l 8,0 0,8 -8,0 z M 216,88 l 8,0 0,8 -8,0 z M 0,96 l 8,0 0,8 -8,0 z M 16,96 l 8,0 0,8 -8,0 z M 24,96 l 8,0 0,8 -8,0 z M 32,96 l 8,0 0,8 -8,0 z M 40,96 l 8,0 0,8 -8,0 z M 48,96 l 8,0 0,8 -8,0 z M 72,96 l 8,0 0,8 -8,0 z M 80,96 l 8,0 0,8 -8,0 z M 96,96 l 8,0 0,8 -8,0 z M 112,96 l 8,0 0,8 -8,0 z M 136,96 l 8,0 0,8 -8,0 z M 152,96 l 8,0 0,8 -8,0 z M 184,96 l 8,0 0,8 -8,0 z M 200,96 l 8,0 0,8 -8,0 z M 208,96 l 8,0 0,8 -8,0 z M 0,104 l 8,0 0,8 -8,0 z M 8,104 l 8,0 0,8 -8,0 z M 16,104 l 8,0 0,8 -8,0 z M 32,104 l 8,0 0,8 -8,0 z M 56,104 l 8,0 0,8 -8,0 z M 144,104 l 8,0 0,8 -8,0 z M 152,104 l 8,0 0,8 -8,0 z M 176,104 l 8,0 0,8 -8,0 z M 184,104 l 8,0 0,8 -8,0 z M 192,104 l 8,0 0,8 -8,0 z M 224,104 l 8,0 0,8 -8,0 z M 0,112 l 8,0 0,8 -8,0 z M 16,112 l 8,0 0,8 -8,0 z M 48,112 l 8,0 0,8 -8,0 z M 64,112 l 8,0 0,8 -8,0 z M 80,112 l 8,0 0,8 -8,0 z M 88,112 l 8,0 0,8 -8,0 z M 96,112 l 8,0 0,8 -8,0 z M 120,112 l 8,0 0,8 -8,0 z M 168,112 l 8,0 0,8 -8,0 z M 200,112 l 8,0 0,8 -8,0 z M 208,112 l 8,0 0,8 -8,0 z M 0,120 l 8,0 0,8 -8,0 z M 16,120 l 8,0 0,8 -8,0 z M 24,120 l 8,0 0,8 -8,0 z M 32,120 l 8,0 0,8 -8,0 z M 40,120 l 8,0 0,8 -8,0 z M 64,120 l 8,0 0,8 -8,0 z M 72,120 l 8,0 0,8 -8,0 z M 80,120 l 8,0 0,8 -8,0 z M 88,120 l 8,0 0,8 -8,0 z M 112,120 l 8,0 0,8 -8,0 z M 120,120 l 8,0 0,8 -8,0 z M 128,120 l 8,0 0,8 -8,0 z M 144,120 l 8,0 0,8 -8,0 z M 168,120 l 8,0 0,8 -8,0 z M 176,120 l 8,0 0,8 -8,0 z M 184,120 l 8,0 0,8 -8,0 z M 216,120 l 8,0 0,8 -8,0 z M 8,128 l 8,0 0,8 -8,0 z M 24,128 l 8,0 0,8 -8,0 z M 32,128 l 8,0 0,8 -8,0 z M 40,128 l 8,0 0,8 -8,0 z M 48,128 l 8,0 0,8 -8,0 z M 80,128 l 8,0 0,8 -8,0 z M 88,128 l 8,0 0,8 -8,0 z M 120,128 l 8,0 0,8 -8,0 z M 136,128 l 8,0 0,8 -8,0 z M 152,128 l 8,0 0,8 -8,0 z M 200,128 l 8,0 0,8 -8,0 z M 208,128 l 8,0 0,8 -8,0 z M 0,136 l 8,0 0,8 -8,0 z M 8,136 l 8,0 0,8 -8,0 z M 16,136 l 8,0 0,8 -8,0 z M 32,136 l 8,0 0,8 -8,0 z M 40,136 l 8,0 0,8 -8,0 z M 56,136 l 8,0 0,8 -8,0 z M 64,136 l 8,0 0,8 -8,0 z M 80,136 l 8,0 0,8 -8,0 z M 96,136 l 8,0 0,8 -8,0 z M 104,136 l 8,0 0,8 -8,0 z M 112,136 l 8,0 0,8 -8,0 z M 128,136 l 8,0 0,8 -8,0 z M 144,136 l 8,0 0,8 -8,0 z M 152,136 l 8,0 0,8 -8,0 z M 160,136 l 8,0 0,8 -8,0 z M 168,136 l 8,0 0,8 -8,0 z M 176,136 l 8,0 0,8 -8,0 z M 192,136 l 8,0 0,8 -8,0 z M 208,136 l 8,0 0,8 -8,0 z M 224,136 l 8,0 0,8 -8,0 z M 0,144 l 8,0 0,8 -8,0 z M 16,144 l 8,0 0,8 -8,0 z M 48,144 l 8,0 0,8 -8,0 z M 64,144 l 8,0 0,8 -8,0 z M 104,144 l 8,0 0,8 -8,0 z M 112,144 l 8,0 0,8 -8,0 z M 120,144 l 8,0 0,8 -8,0 z M 128,144 l 8,0 0,8 -8,0 z M 136,144 l 8,0 0,8 -8,0 z M 160,144 l 8,0 0,8 -8,0 z M 168,144 l 8,0 0,8 -8,0 z M 184,144 l 8,0 0,8 -8,0 z M 208,144 l 8,0 0,8 -8,0 z M 0,152 l 8,0 0,8 -8,0 z M 16,152 l 8,0 0,8 -8,0 z M 32,152 l 8,0 0,8 -8,0 z M 40,152 l 8,0 0,8 -8,0 z M 72,152 l 8,0 0,8 -8,0 z M 80,152 l 8,0 0,8 -8,0 z M 96,152 l 8,0 0,8 -8,0 z M 104,152 l 8,0 0,8 -8,0 z M 120,152 l 8,0 0,8 -8,0 z M 144,152 l 8,0 0,8 -8,0 z M 152,152 l 8,0 0,8 -8,0 z M 160,152 l 8,0 0,8 -8,0 z M 168,152 l 8,0 0,8 -8,0 z M 176,152 l 8,0 0,8 -8,0 z M 184,152 l 8,0 0,8 -8,0 z M 216,152 l 8,0 0,8 -8,0 z M 0,160 l 8,0 0,8 -8,0 z M 40,160 l 8,0 0,8 -8,0 z M 48,160 l 8,0 0,8 -8,0 z M 64,160 l 8,0 0,8 -8,0 z M 96,160 l 8,0 0,8 -8,0 z M 112,160 l 8,0 0,8 -8,0 z M 136,160 l 8,0 0,8 -8,0 z M 144,160 l 8,0 0,8 -8,0 z M 160,160 l 8,0 0,8 -8,0 z M 168,160 l 8,0 0,8 -8,0 z M 176,160 l 8,0 0,8 -8,0 z M 184,160 l 8,0 0,8 -8,0 z M 192,160 l 8,0 0,8 -8,0 z M 208,160 l 8,0 0,8 -8,0 z M 216,160 l 8,0 0,8 -8,0 z M 224,160 l 8,0 0,8 -8,0 z M 64,168 l 8,0 0,8 -8,0 z M 72,168 l 8,0 0,8 -8,0 z M 80,168 l 8,0 0,8 -8,0 z M 128,168 l 8,0 0,8 -8,0 z M 136,168 l 8,0 0,8 -8,0 z M 144,168 l 8,0 0,8 -8,0 z M 160,168 l 8,0 0,8 -8,0 z M 192,168 l 8,0 0,8 -8,0 z M 200,168 l 8,0 0,8 -8,0 z M 208,168 l 8,0 0,8 -8,0 z M 216,168 l 8,0 0,8 -8,0 z M 224,168 l 8,0 0,8 -8,0 z M 0,176 l 8,0 0,8 -8,0 z M 8,176 l 8,0 0,8 -8,0 z M 16,176 l 8,0 0,8 -8,0 z M 24,176 l 8,0 0,8 -8,0 z M 32,176 l 8,0 0,8 -8,0 z M 40,176 l 8,0 0,8 -8,0 z M 48,176 l 8,0 0,8 -8,0 z M 64,176 l 8,0 0,8 -8,0 z M 88,176 l 8,0 0,8 -8,0 z M 96,176 l 8,0 0,8 -8,0 z M 120,176 l 8,0 0,8 -8,0 z M 152,176 l 8,0 0,8 -8,0 z M 160,176 l 8,0 0,8 -8,0 z M 176,176 l 8,0 0,8 -8,0 z M 192,176 l 8,0 0,8 -8,0 z M 200,176 l 8,0 0,8 -8,0 z M 208,176 l 8,0 0,8 -8,0 z M 0,184 l 8,0 0,8 -8,0 z M 48,184 l 8,0 0,8 -8,0 z M 80,184 l 8,0 0,8 -8,0 z M 88,184 l 8,0 0,8 -8,0 z M 112,184 l 8,0 0,8 -8,0 z M 120,184 l 8,0 0,8 -8,0 z M 128,184 l 8,0 0,8 -8,0 z M 152,184 l 8,0 0,8 -8,0 z M 160,184 l 8,0 0,8 -8,0 z M 192,184 l 8,0 0,8 -8,0 z M 216,184 l 8,0 0,8 -8,0 z M 224,184 l 8,0 0,8 -8,0 z M 0,192 l 8,0 0,8 -8,0 z M 16,192 l 8,0 0,8 -8,0 z M 24,192 l 8,0 0,8 -8,0 z M 32,192 l 8,0 0,8 -8,0 z M 48,192 l 8,0 0,8 -8,0 z M 64,192 l 8,0 0,8 -8,0 z M 80,192 l 8,0 0,8 -8,0 z M 88,192 l 8,0 0,8 -8,0 z M 136,192 l 8,0 0,8 -8,0 z M 160,192 l 8,0 0,8 -8,0 z M 168,192 l 8,0 0,8 -8,0 z M 176,192 l 8,0 0,8 -8,0 z M 184,192 l 8,0 0,8 -8,0 z M 192,192 l 8,0 0,8 -8,0 z M 208,192 l 8,0 0,8 -8,0 z M 0,200 l 8,0 0,8 -8,0 z M 16,200 l 8,0 0,8 -8,0 z M 24,200 l 8,0 0,8 -8,0 z M 32,200 l 8,0 0,8 -8,0 z M 48,200 l 8,0 0,8 -8,0 z M 64,200 l 8,0 0,8 -8,0 z M 80,200 l 8,0 0,8 -8,0 z M 96,200 l 8,0 0,8 -8,0 z M 104,200 l 8,0 0,8 -8,0 z M 112,200 l 8,0 0,8 -8,0 z M 128,200 l 8,0 0,8 -8,0 z M 160,200 l 8,0 0,8 -8,0 z M 200,200 l 8,0 0,8 -8,0 z M 208,200 l 8,0 0,8 -8,0 z M 216,200 l 8,0 0,8 -8,0 z M 224,200 l 8,0 0,8 -8,0 z M 0,208 l 8,0 0,8 -8,0 z M 16,208 l 8,0 0,8 -8,0 z M 24,208 l 8,0 0,8 -8,0 z M 32,208 l 8,0 0,8 -8,0 z M 48,208 l 8,0 0,8 -8,0 z M 64,208 l 8,0 0,8 -8,0 z M 72,208 l 8,0 0,8 -8,0 z M 80,208 l 8,0 0,8 -8,0 z M 104,208 l 8,0 0,8 -8,0 z M 112,208 l 8,0 0,8 -8,0 z M 120,208 l 8,0 0,8 -8,0 z M 128,208 l 8,0 0,8 -8,0 z M 136,208 l 8,0 0,8 -8,0 z M 144,208 l 8,0 0,8 -8,0 z M 168,208 l 8,0 0,8 -8,0 z M 176,208 l 8,0 0,8 -8,0 z M 184,208 l 8,0 0,8 -8,0 z M 192,208 l 8,0 0,8 -8,0 z M 200,208 l 8,0 0,8 -8,0 z M 208,208 l 8,0 0,8 -8,0 z M 216,208 l 8,0 0,8 -8,0 z M 0,216 l 8,0 0,8 -8,0 z M 48,216 l 8,0 0,8 -8,0 z M 64,216 l 8,0 0,8 -8,0 z M 80,216 l 8,0 0,8 -8,0 z M 96,216 l 8,0 0,8 -8,0 z M 104,216 l 8,0 0,8 -8,0 z M 128,216 l 8,0 0,8 -8,0 z M 152,216 l 8,0 0,8 -8,0 z M 160,216 l 8,0 0,8 -8,0 z M 176,216 l 8,0 0,8 -8,0 z M 184,216 l 8,0 0,8 -8,0 z M 200,216 l 8,0 0,8 -8,0 z M 216,216 l 8,0 0,8 -8,0 z M 0,224 l 8,0 0,8 -8,0 z M 8,224 l 8,0 0,8 -8,0 z M 16,224 l 8,0 0,8 -8,0 z M 24,224 l 8,0 0,8 -8,0 z M 32,224 l 8,0 0,8 -8,0 z M 40,224 l 8,0 0,8 -8,0 z M 48,224 l 8,0 0,8 -8,0 z M 64,224 l 8,0 0,8 -8,0 z M 96,224 l 8,0 0,8 -8,0 z M 112,224 l 8,0 0,8 -8,0 z M 136,224 l 8,0 0,8 -8,0 z M 152,224 l 8,0 0,8 -8,0 z M 176,224 l 8,0 0,8 -8,0 z M 184,224 l 8,0 0,8 -8,0 z M 192,224 l 8,0 0,8 -8,0 z M 208,224 l 8,0 0,8 -8,0 z " />
</svg>
