<?xml version="1.0" encoding="utf-8"?>
<!DOCTYPE svg PUBLIC "-//W3C//DTD SVG 1.1//EN" "http://www.w3.org/Graphics/SVG/1.1/DTD/svg11.dtd">
<svg version="1.1" xmlns="http://www.w3.org/2000/svg" width="640" height="230">
<rect x="360" y="70" fill="#D8D5E2" width="120" height="35"/>
<g>
	<path fill="#3D2C70" d="M540,130c0,11.05,8.95,20,20,20h60c11.05,0,20-8.95,20-20v-30c0-11.05-8.95-20-20-20h-60
		c-11.05,0-20,8.95-20,20V130z"/>
</g>
<g>
	<path fill="#FFFFFF" d="M577.42,111.81l-1.02,1.41c-0.51-0.39-0.97-0.57-1.51-0.57c-1.02,0-1.61,0.69-1.61,2.48
		c0,1.77,0.63,2.31,1.57,2.31c0.57,0,0.96-0.18,1.53-0.54l1.03,1.47c-0.73,0.58-1.59,0.95-2.68,0.95c-2.45,0-3.95-1.65-3.95-4.17
		c0-2.54,1.52-4.3,3.9-4.3C575.8,110.83,576.66,111.16,577.42,111.81z"/>
	<path fill="#FFFFFF" d="M578.5,117.03v-9.1l2.37-0.25v9.27c0,0.33,0.12,0.5,0.4,0.5c0.17,0,0.29-0.03,0.39-0.08l0.46,1.68
		c-0.36,0.15-0.87,0.27-1.44,0.27C579.31,119.31,578.5,118.48,578.5,117.03z"/>
	<path fill="#FFFFFF" d="M585.76,108.24c0,0.76-0.58,1.35-1.41,1.35c-0.82,0-1.39-0.58-1.39-1.35c0-0.77,0.57-1.35,1.39-1.35
		C585.18,106.89,585.76,107.47,585.76,108.24z M585.55,119.05h-2.37v-7.96h2.37V119.05z"/>
	<path fill="#FFFFFF" d="M594.46,115.77h-4.92c0.15,1.42,0.82,1.82,1.8,1.82c0.64,0,1.21-0.23,1.9-0.71l0.98,1.32
		c-0.79,0.63-1.82,1.11-3.11,1.11c-2.65,0-4.01-1.71-4.01-4.2c0-2.38,1.31-4.27,3.72-4.27c2.28,0,3.68,1.5,3.68,4.08
		C594.51,115.17,594.49,115.53,594.46,115.77z M592.18,114.24c-0.01-1.08-0.34-1.83-1.29-1.83c-0.79,0-1.25,0.49-1.37,1.93h2.65
		V114.24z"/>
	<path fill="#FFFFFF" d="M602.89,113.23v5.82h-2.37v-5.42c0-0.84-0.29-1.06-0.75-1.06c-0.52,0-0.96,0.37-1.38,1.03v5.45h-2.37v-7.96
		h2.07l0.17,0.95c0.67-0.78,1.44-1.2,2.43-1.2C602.07,110.83,602.89,111.72,602.89,113.23z"/>
	<path fill="#FFFFFF" d="M609.82,118.68c-0.6,0.42-1.44,0.63-2.16,0.63c-1.76-0.01-2.61-1-2.61-2.88v-3.69h-1.12v-1.65h1.12v-1.72
		l2.37-0.27v2h1.83l-0.26,1.65h-1.57v3.66c0,0.76,0.26,1.04,0.75,1.04c0.27,0,0.54-0.08,0.86-0.27L609.82,118.68z"/>
</g>
<g>
	<path fill="#3D2C70" d="M200,130c0,11.05,8.95,20,20,20h60c11.05,0,20-8.95,20-20v-30c0-11.05-8.95-20-20-20h-60
		c-11.05,0-20,8.95-20,20V130z"/>
</g>
<g>
	<path fill="#FFFFFF" d="M234.39,111.81l-0.87,1.33c-0.62-0.39-1.28-0.62-1.96-0.62c-0.65,0-0.96,0.24-0.96,0.6
		c0,0.42,0.21,0.6,1.63,1.02c1.58,0.45,2.46,1.11,2.46,2.54c0,1.65-1.56,2.62-3.54,2.62c-1.38,0-2.55-0.48-3.33-1.19l1.16-1.29
		c0.6,0.46,1.33,0.78,2.12,0.78c0.72,0,1.15-0.27,1.15-0.75c0-0.54-0.24-0.71-1.68-1.11c-1.58-0.45-2.36-1.26-2.36-2.49
		c0-1.37,1.25-2.43,3.25-2.43C232.62,110.83,233.66,111.21,234.39,111.81z"/>
	<path fill="#FFFFFF" d="M242.96,115.77h-4.92c0.15,1.42,0.82,1.82,1.8,1.82c0.64,0,1.21-0.23,1.9-0.71l0.98,1.32
		c-0.79,0.63-1.82,1.11-3.11,1.11c-2.65,0-4-1.71-4-4.2c0-2.38,1.31-4.27,3.72-4.27c2.28,0,3.67,1.5,3.67,4.08
		C243,115.17,242.99,115.53,242.96,115.77z M240.68,114.24c-0.01-1.08-0.34-1.83-1.29-1.83c-0.79,0-1.25,0.49-1.37,1.93h2.66V114.24
		z"/>
	<path fill="#FFFFFF" d="M249.63,110.97l-0.38,2.29c-0.25-0.06-0.45-0.1-0.72-0.1c-0.98,0-1.4,0.72-1.65,1.92v3.97h-2.37v-7.96h2.07
		l0.2,1.53c0.36-1.1,1.14-1.75,2.05-1.75C249.14,110.86,249.38,110.89,249.63,110.97z"/>
	<path fill="#FFFFFF" d="M255.38,119.05h-2.8l-2.56-7.96h2.58l1.41,6.17l1.47-6.17h2.42L255.38,119.05z"/>
	<path fill="#FFFFFF" d="M265.62,115.77h-4.92c0.15,1.42,0.82,1.82,1.8,1.82c0.64,0,1.21-0.23,1.9-0.71l0.98,1.32
		c-0.79,0.63-1.82,1.11-3.11,1.11c-2.65,0-4-1.71-4-4.2c0-2.38,1.3-4.27,3.72-4.27c2.28,0,3.67,1.5,3.67,4.08
		C265.67,115.17,265.65,115.53,265.62,115.77z M263.34,114.24c-0.01-1.08-0.34-1.83-1.29-1.83c-0.79,0-1.25,0.49-1.37,1.93h2.66
		V114.24z"/>
	<path fill="#FFFFFF" d="M272.3,110.97l-0.38,2.29c-0.25-0.06-0.45-0.1-0.72-0.1c-0.98,0-1.4,0.72-1.65,1.92v3.97h-2.37v-7.96h2.07
		l0.2,1.53c0.36-1.1,1.14-1.75,2.05-1.75C271.8,110.86,272.04,110.89,272.3,110.97z"/>
</g>
<g>
	<path fill="#3D2C70" d="M379.08,83.69l-1.14,1.33c-0.72-0.58-1.44-0.87-2.28-0.87c-0.86,0-1.4,0.36-1.4,1.02
		c0,0.66,0.39,0.93,2.01,1.44c1.96,0.63,3.09,1.44,3.09,3.36c0,1.94-1.53,3.28-4.12,3.28c-1.8,0-3.09-0.66-3.95-1.48l1.24-1.36
		c0.77,0.65,1.59,1.02,2.62,1.02c1.02,0,1.65-0.48,1.65-1.28c0-0.76-0.39-1.11-1.9-1.57c-2.33-0.72-3.18-1.68-3.18-3.23
		c0-1.83,1.59-3,3.75-3C377.07,82.35,378.17,82.82,379.08,83.69z"/>
	<path fill="#3D2C70" d="M388.56,86c0,2.42-1.71,3.54-4.11,3.54h-1.12V93h-2.46V82.61h3.36C386.91,82.61,388.56,83.72,388.56,86z
		 M386.03,86c0-1.11-0.62-1.63-1.83-1.63h-0.87v3.4h0.91C385.35,87.77,386.03,87.3,386.03,86z"/>
	<path fill="#3D2C70" d="M393.92,90.77h-3.04L390.35,93h-2.55l3.13-10.39h2.98L397.05,93h-2.61L393.92,90.77z M393.48,88.98
		l-1.1-4.59l-1.1,4.59H393.48z"/>
	<path fill="#3D2C70" d="M401.39,89.03h-0.96V93h-2.46V82.61h3.4c2.82,0,4.28,1,4.28,3.17c0,1.36-0.64,2.17-1.99,2.8l2.64,4.42
		h-2.78L401.39,89.03z M400.43,87.33h1.04c1.08,0,1.65-0.46,1.65-1.56c0-1.01-0.58-1.44-1.8-1.44h-0.88V87.33z"/>
	<path fill="#3D2C70" d="M416.75,93.27l-1.48,1.94c-0.96-1.08-2.04-2-3.99-2c-2.78,0-4.53-1.95-4.53-5.41
		c0-3.39,1.75-5.44,4.68-5.44c2.94,0,4.69,1.98,4.69,5.44c0,2.52-1.17,3.82-2.44,4.53C415.02,92.33,415.91,92.67,416.75,93.27z
		 M411.42,91.46c1.41,0,2.12-1.02,2.12-3.66c0-2.62-0.72-3.65-2.12-3.65c-1.38,0-2.1,1.02-2.1,3.65
		C409.32,90.44,410.07,91.46,411.42,91.46z"/>
	<path fill="#3D2C70" d="M420.18,91.05h4.05L423.98,93h-6.26V82.61h2.46V91.05z"/>
	<path fill="#3D2C70" d="M436.29,85.04v11.29l-2.37-0.26v-3.84c-0.46,0.58-1.14,1.02-2.12,1.02c-2.03,0-3.03-1.68-3.03-4.26
		c0-2.46,1.25-4.21,3.3-4.21c0.77,0,1.46,0.31,2.03,0.93l0.12-0.68H436.29z M433.92,90.63v-3.45c-0.36-0.42-0.72-0.67-1.23-0.67
		c-0.86,0-1.46,0.72-1.46,2.5c0,1.98,0.54,2.5,1.32,2.5C433.11,91.52,433.55,91.21,433.92,90.63z"/>
	<path fill="#3D2C70" d="M445.02,93h-2.05l-0.1-1c-0.59,0.84-1.37,1.26-2.42,1.26c-1.48,0-2.22-0.96-2.22-2.5v-5.71h2.37v5.42
		c0,0.81,0.27,1.05,0.77,1.05c0.49,0,0.94-0.33,1.29-0.93v-5.54h2.37V93z"/>
	<path fill="#3D2C70" d="M453.93,89.72h-4.92c0.15,1.42,0.82,1.81,1.8,1.81c0.64,0,1.21-0.23,1.9-0.71l0.97,1.32
		c-0.79,0.63-1.81,1.11-3.11,1.11c-2.65,0-4-1.71-4-4.2c0-2.38,1.3-4.27,3.72-4.27c2.28,0,3.67,1.5,3.67,4.08
		C453.97,89.12,453.96,89.48,453.93,89.72z M451.65,88.19c-0.02-1.08-0.35-1.83-1.29-1.83c-0.79,0-1.24,0.49-1.37,1.93h2.66V88.19z"
		/>
	<path fill="#3D2C70" d="M460.61,84.92l-0.38,2.29c-0.26-0.06-0.45-0.1-0.72-0.1c-0.97,0-1.39,0.72-1.65,1.92V93h-2.37v-7.96h2.07
		l0.2,1.53c0.36-1.1,1.14-1.75,2.05-1.75C460.11,84.81,460.35,84.84,460.61,84.92z"/>
	<path fill="#3D2C70" d="M466.39,93.02c-0.63,2.01-1.98,3.18-4.48,3.31l-0.26-1.67c1.56-0.2,2.13-0.65,2.56-1.67h-0.81l-2.43-7.96
		h2.52l1.42,6.45l1.56-6.45h2.45L466.39,93.02z"/>
</g>
<g>
	<path fill="#3D2C70" d="M311.9,126.23l-0.88,0.82c-0.66-0.66-1.33-0.9-2.14-0.9c-1.12,0-2.13,0.6-2.13,1.68
		c0,0.78,0.42,1.19,1.93,1.7c1.44,0.45,2.7,1.06,2.7,2.83c0,1.29-0.93,3.31-4.05,3.31c-1.52,0-2.61-0.54-3.34-1.38l0.9-0.84
		c0.62,0.67,1.38,1.05,2.47,1.05c1.32,0,2.55-0.72,2.55-2.07c0-0.9-0.48-1.3-1.91-1.8c-1.75-0.54-2.7-1.26-2.7-2.74
		c0-1.19,1.04-2.91,3.54-2.91C310.2,124.99,311.13,125.44,311.9,126.23z"/>
	<path fill="#3D2C70" d="M320.72,127.9c0,1.92-1.14,3.81-4.44,3.81h-1.33l-0.53,3.79h-1.41l1.46-10.33h2.66
		C319.37,125.17,320.72,126.04,320.72,127.9z M319.22,127.9c0-1.22-0.85-1.62-2.21-1.62h-1.3l-0.6,4.3h1.2
		C318.65,130.58,319.22,129.23,319.22,127.9z"/>
	<path fill="#3D2C70" d="M325.65,132.91h-3.88l-1.14,2.59h-1.46l4.74-10.33h1.79l1.81,10.33h-1.46L325.65,132.91z M325.47,131.75
		l-0.84-5.4l-2.37,5.4H325.47z"/>
	<path fill="#3D2C70" d="M334.12,130.91l2.09,4.59h-1.56l-1.9-4.38h-1.63l-0.62,4.38h-1.41l1.46-10.33h2.65
		c2.37,0,3.54,0.86,3.54,2.57C336.74,128.99,336.08,130.35,334.12,130.91z M331.26,130.03h1.52c1.95,0,2.47-1.26,2.47-2.29
		c0-1.05-0.66-1.46-2.13-1.46h-1.34L331.26,130.03z"/>
	<path fill="#3D2C70" d="M343.77,134.94c1.11,0.03,1.89,0.45,2.55,0.95l-1.05,1.16c-1-1.05-1.8-1.37-3.66-1.37
		c-2.25,0-3.71-1.46-3.71-4.15c0-2.64,1.29-6.54,5.11-6.54c2.25,0,3.69,1.47,3.69,4.2C346.71,131.29,345.95,134,343.77,134.94z
		 M341.66,134.51c2.83,0,3.58-3.33,3.58-5.58c0-1.92-0.84-2.77-2.28-2.77c-2.8,0-3.59,3.3-3.59,5.52
		C339.38,133.7,340.28,134.51,341.66,134.51z"/>
	<path fill="#3D2C70" d="M349.76,134.25h4.2l-0.33,1.25h-5.46l1.46-10.33h1.41L349.76,134.25z"/>
	<path fill="#3D2C70" d="M364.5,132.91h-3.88l-1.14,2.59h-1.46l4.74-10.33h1.79l1.81,10.33h-1.46L364.5,132.91z M364.32,131.75
		l-0.84-5.4l-2.37,5.4H364.32z"/>
	<path fill="#3D2C70" d="M375.64,127.9c0,1.92-1.14,3.81-4.44,3.81h-1.34l-0.53,3.79h-1.41l1.46-10.33h2.66
		C374.29,125.17,375.64,126.04,375.64,127.9z M374.14,127.9c0-1.22-0.86-1.62-2.21-1.62h-1.3l-0.6,4.3h1.2
		C373.57,130.58,374.14,129.23,374.14,127.9z"/>
	<path fill="#3D2C70" d="M377.97,135.5h-1.41l1.46-10.33h1.41L377.97,135.5z"/>
</g>
<g>
	<path fill="#B1ABC6" d="M0,130c0,11.05,8.95,20,20,20h60c11.05,0,20-8.95,20-20v-30c0-11.05-8.95-20-20-20H20
		C8.95,80,0,88.95,0,100V130z"/>
</g>
<g>
	<path fill="#FFFFFF" d="M25.57,107.92v11.13h-2.1l-0.12-0.93c-0.45,0.66-1.18,1.19-2.26,1.19c-2.03,0-3.03-1.68-3.03-4.26
		c0-2.46,1.25-4.21,3.3-4.21c0.72,0,1.37,0.29,1.85,0.75v-3.92L25.57,107.92z M23.2,116.68v-3.45c-0.36-0.42-0.72-0.67-1.23-0.67
		c-0.85,0-1.46,0.72-1.46,2.5c0,1.98,0.54,2.5,1.32,2.5C22.39,117.57,22.82,117.27,23.2,116.68z"/>
	<path fill="#FFFFFF" d="M34.45,117.72l-0.5,1.54c-0.93-0.08-1.54-0.36-1.92-1.14c-0.57,0.87-1.46,1.19-2.4,1.19
		c-1.59,0-2.6-1.04-2.6-2.49c0-1.74,1.32-2.68,3.74-2.68h0.81v-0.34c0-0.95-0.38-1.23-1.35-1.23c-0.51,0-1.29,0.15-2.08,0.42
		l-0.54-1.56c1-0.38,2.1-0.58,3-0.58c2.31,0,3.3,0.97,3.3,2.82v3.09C33.91,117.36,34.07,117.58,34.45,117.72z M31.58,116.86v-1.42
		H31c-1.08,0-1.6,0.38-1.6,1.17c0,0.63,0.34,1,0.93,1C30.86,117.61,31.3,117.33,31.58,116.86z"/>
	<path fill="#FFFFFF" d="M40.94,118.68c-0.6,0.42-1.44,0.63-2.16,0.63c-1.75-0.01-2.61-1-2.61-2.88v-3.69h-1.12v-1.65h1.12v-1.72
		l2.37-0.27v2h1.83l-0.25,1.65h-1.58v3.66c0,0.76,0.26,1.04,0.75,1.04c0.27,0,0.54-0.08,0.86-0.27L40.94,118.68z"/>
	<path fill="#FFFFFF" d="M48.76,117.72l-0.5,1.54c-0.93-0.08-1.54-0.36-1.92-1.14c-0.57,0.87-1.46,1.19-2.4,1.19
		c-1.59,0-2.6-1.04-2.6-2.49c0-1.74,1.32-2.68,3.74-2.68h0.81v-0.34c0-0.95-0.38-1.23-1.35-1.23c-0.51,0-1.29,0.15-2.08,0.42
		l-0.54-1.56c1-0.38,2.1-0.58,3-0.58c2.31,0,3.3,0.97,3.3,2.82v3.09C48.22,117.36,48.38,117.58,48.76,117.72z M45.89,116.86v-1.42
		h-0.58c-1.08,0-1.6,0.38-1.6,1.17c0,0.63,0.34,1,0.93,1C45.17,117.61,45.61,117.33,45.89,116.86z"/>
	<path fill="#FFFFFF" d="M57.73,115.08c0,2.46-1.18,4.23-3.17,4.23c-0.88,0-1.6-0.38-2.08-1.02l-0.12,0.77h-2.1v-11.13l2.37-0.25
		v4.23c0.46-0.64,1.28-1.06,2.1-1.06C56.69,110.83,57.73,112.41,57.73,115.08z M55.27,115.08c0-2.03-0.54-2.5-1.27-2.5
		c-0.57,0-1.02,0.34-1.37,0.93v3.3c0.3,0.5,0.74,0.78,1.26,0.78C54.7,117.58,55.27,116.94,55.27,115.08z"/>
	<path fill="#FFFFFF" d="M66.23,117.72l-0.5,1.54c-0.93-0.08-1.54-0.36-1.92-1.14c-0.57,0.87-1.46,1.19-2.4,1.19
		c-1.59,0-2.6-1.04-2.6-2.49c0-1.74,1.32-2.68,3.74-2.68h0.81v-0.34c0-0.95-0.38-1.23-1.35-1.23c-0.51,0-1.29,0.15-2.08,0.42
		l-0.54-1.56c1-0.38,2.1-0.58,3-0.58c2.31,0,3.3,0.97,3.3,2.82v3.09C65.69,117.36,65.86,117.58,66.23,117.72z M63.37,116.86v-1.42
		h-0.58c-1.08,0-1.6,0.38-1.6,1.17c0,0.63,0.34,1,0.93,1C62.65,117.61,63.08,117.33,63.37,116.86z"/>
	<path fill="#FFFFFF" d="M73.46,111.81l-0.87,1.33c-0.62-0.39-1.28-0.62-1.96-0.62c-0.65,0-0.96,0.24-0.96,0.6
		c0,0.42,0.21,0.6,1.63,1.02c1.58,0.45,2.46,1.11,2.46,2.54c0,1.65-1.56,2.62-3.54,2.62c-1.38,0-2.55-0.48-3.33-1.19l1.16-1.29
		c0.6,0.46,1.33,0.78,2.12,0.78c0.72,0,1.15-0.27,1.15-0.75c0-0.54-0.24-0.71-1.68-1.11c-1.58-0.45-2.36-1.26-2.36-2.49
		c0-1.37,1.25-2.43,3.25-2.43C71.69,110.83,72.73,111.21,73.46,111.81z"/>
	<path fill="#FFFFFF" d="M82.02,115.77H77.1c0.15,1.42,0.82,1.82,1.8,1.82c0.64,0,1.21-0.23,1.9-0.71l0.98,1.32
		c-0.79,0.63-1.82,1.11-3.11,1.11c-2.65,0-4-1.71-4-4.2c0-2.38,1.31-4.27,3.72-4.27c2.28,0,3.67,1.5,3.67,4.08
		C82.07,115.17,82.05,115.53,82.02,115.77z M79.74,114.24c-0.01-1.08-0.34-1.83-1.29-1.83c-0.79,0-1.25,0.49-1.37,1.93h2.66V114.24z
		"/>
</g>
<g>
	<g>
		<line fill="none" stroke="#3D2C70" stroke-width="2" stroke-miterlimit="10" x1="540" y1="115" x2="305.65" y2="115"/>
		<g>
			<polygon fill="#3D2C70" points="317.47,108.64 318.16,110.52 305.85,115 318.16,119.48 317.47,121.36 300,115 			"/>
		</g>
	</g>
</g>
<g>
	<g>
		<line fill="none" stroke="#B1ABC6" stroke-width="2" x1="200" y1="115" x2="105.65" y2="115"/>
		<g>
			<polygon fill="#B1ABC6" points="117.47,108.64 118.16,110.52 105.85,115 118.16,119.48 117.47,121.36 100,115 			"/>
		</g>
	</g>
</g>
</svg>
